<svg width="1673" height="1024" viewBox="0 0 1673 1024" fill="none" xmlns="http://www.w3.org/2000/svg">
<g clip-path="url(#clip0_55_1546)">
<rect width="1673" height="1024" fill="#E9FBEC"/>
<path d="M1673 230.006V1052H-51V379.961H-37.585V251.556H33.5031V316.977H102.413L129.701 347.507H157.449V189.342H221.084V230.006H275.202V308.767H347.781V209.995H405.11V251.556H434.921L460.719 222.694H490.072V127H572.052V269.002H655.982V303.252H688.43V251.556H812.376V308.767H859.844V230.006H932.079V347.507H936.321V189.342H1000.07V230.006H1054.08V308.767H1126.65V209.995H1183.98V251.556H1213.79L1239.59 222.694H1268.94V127H1351.04V269.002H1434.97V303.252H1467.42V251.556H1532.66V308.767H1638.72V230.006H1673Z" fill="#B0E5BF"/>
</g>
<defs>
<clipPath id="clip0_55_1546">
<rect width="1673" height="1024" fill="white"/>
</clipPath>
</defs>
</svg>
