<svg width="872" height="650" viewBox="0 0 872 650" fill="none" xmlns="http://www.w3.org/2000/svg">
<path d="M370.556 181.574L376.101 169.758L368.257 161.857L371.841 157.46L364.47 148.255L348.985 96.0426L233.356 147.087L252.56 196.001L267.639 208.985L266.624 228.84L273.589 237.152L299.014 293.418C301.584 298.089 328.361 287.853 358.655 270.541C389.016 253.16 411.466 235.229 408.829 230.557L370.556 181.574Z" fill="url(#paint0_linear_16_308)"/>
<path d="M348.985 96.0426C351.081 100.989 326.941 116.447 295.025 130.53C263.108 144.682 235.452 152.033 233.356 147.087C231.192 142.072 255.4 126.614 287.316 112.531C319.233 98.4471 346.821 91.0275 348.985 96.0426Z" fill="url(#paint1_linear_16_308)"/>
<path d="M300.57 117.408C301.584 119.675 290.494 126.751 275.753 133.278C261.08 139.736 248.435 143.171 247.42 140.835C246.474 138.568 257.563 131.423 272.237 124.965C286.91 118.507 299.623 115.072 300.57 117.408Z" fill="#6B6B6B"/>
<path d="M395.102 54.8226C395.102 54.8226 374.951 44.9298 351.487 60.0438C351.487 60.0438 399.024 196.001 399.971 336.561C399.88 337.019 399.88 337.454 399.971 337.867C399.971 337.867 399.971 337.889 399.971 337.935C399.971 337.981 399.971 338.027 399.971 338.073C400.985 343.088 410.993 345.355 422.285 343.019C433.645 340.683 445.817 333.676 444.802 328.592C444.802 328.409 444.757 328.249 444.667 328.111C441.827 318.287 396.251 158.56 395.102 54.8226Z" fill="url(#paint2_linear_16_308)"/>
<path d="M395.102 54.8226C395.372 57.9828 391.315 61.0743 385.5 63.2727C381.713 64.6467 377.25 65.6772 372.72 66.0894C369.474 66.3642 366.364 66.2955 363.591 65.952C356.491 65.0589 351.42 62.3109 351.081 58.6011C350.676 53.4486 359.602 48.4335 371.097 47.403C382.66 46.4412 394.696 49.6701 395.102 54.8226Z" fill="#A0A4B0"/>
<path d="M388.137 59.4942C388.272 60.7995 387.258 62.1048 385.5 63.2727C381.713 64.6467 377.25 65.6772 372.72 66.0894C369.474 66.3642 366.364 66.2955 363.591 65.952C361.022 65.0589 359.399 63.6849 359.263 61.9674C358.925 58.6011 364.876 55.3035 372.382 54.6852C379.955 53.9982 387.867 56.1279 388.137 59.4942Z" fill="#8B8E99"/>
<path d="M359.669 65.3337C359.669 65.3337 338.572 57.5706 316.798 75.0204C316.798 75.0204 377.588 205.413 392.6 345.08C392.555 345.538 392.6 345.973 392.735 346.385C392.735 346.431 392.735 346.454 392.735 346.454C392.735 346.5 392.758 346.546 392.803 346.592C394.29 351.538 404.433 352.706 415.455 349.202C426.477 345.698 437.973 337.523 436.418 332.577C436.372 332.394 436.327 332.233 436.282 332.096C432.428 322.615 371.165 168.452 359.669 65.3337Z" fill="url(#paint3_linear_16_308)"/>
<path d="M359.669 65.3338C360.278 68.4253 356.491 71.929 350.946 74.677C347.362 76.4632 342.967 77.9746 338.504 78.8677C335.326 79.486 332.216 79.6921 329.443 79.6234C322.275 79.486 316.934 77.2876 316.257 73.5778C315.311 68.494 323.695 62.6545 335.056 60.4561C346.416 58.2577 358.722 60.25 359.669 65.3338Z" fill="#B5B9C7"/>
<path d="M353.178 70.6923C353.448 71.9976 352.569 73.3716 350.946 74.6769C347.362 76.4631 342.967 77.9745 338.504 78.8676C335.326 79.4859 332.216 79.692 329.443 79.6233C326.806 79.005 324.98 77.8371 324.71 76.1196C324.034 72.822 329.578 68.9061 337.017 67.4634C344.522 66.0207 352.569 67.3947 353.178 70.6923Z" fill="#9295A1"/>
<path d="M432.969 82.7149C432.969 82.7149 413.968 68.3565 388.002 77.9745C388.002 77.9745 416.47 223.138 397.13 362.255C396.995 362.667 396.928 363.102 396.928 363.56C396.928 363.56 396.928 363.583 396.928 363.629C396.928 363.675 396.928 363.721 396.928 363.767C397.266 368.988 407.071 373.453 418.836 373.728C430.602 373.934 443.991 369.812 443.72 364.522C443.72 364.385 443.698 364.225 443.653 364.041C442.165 353.736 419.107 185.49 432.969 82.7149Z" fill="url(#paint4_linear_16_308)"/>
<path d="M432.969 82.7148C432.834 85.875 428.235 88.0047 422.014 88.8291C418.025 89.3787 413.292 89.3787 408.693 88.7604C405.38 88.2795 402.202 87.5238 399.429 86.562C392.397 84.0888 387.664 80.1729 387.867 76.4631C388.137 71.2419 397.942 68.3565 409.775 69.9366C421.541 71.5167 433.307 77.4936 432.969 82.7148Z" fill="#B5B9C7"/>
<path d="M425.26 85.7377C425.193 87.043 423.975 88.0735 422.014 88.8292C418.025 89.3788 413.292 89.3788 408.693 88.7605C405.38 88.2796 402.202 87.5239 399.43 86.5621C396.995 85.1194 395.508 83.3332 395.643 81.6844C395.778 78.2494 402.27 76.3258 409.978 77.3563C417.754 78.4555 425.463 82.3714 425.26 85.7377Z" fill="#9295A1"/>
<path d="M469.754 80.1042C469.754 80.1042 452.376 63.7536 425.531 70.4862C425.531 70.4862 438.581 217.916 404.704 354.148C404.523 354.561 404.433 354.996 404.433 355.454C404.388 355.5 404.366 355.545 404.366 355.591C404.095 360.881 413.427 366.377 425.125 367.888C436.823 369.4 450.55 366.721 450.82 361.499C450.82 361.316 450.798 361.156 450.753 361.018C450.415 350.507 445.208 180.818 469.754 80.1042Z" fill="url(#paint5_linear_16_308)"/>
<path d="M469.754 80.1043C469.213 83.1958 464.48 84.8446 458.191 84.982C454.201 85.1194 449.468 84.6385 444.938 83.4706C441.692 82.6462 438.649 81.547 436.012 80.3104C429.25 77.0815 424.922 72.6847 425.531 68.9749C426.41 63.8224 436.417 62.0362 447.98 64.8529C459.543 67.7383 470.633 74.9518 469.754 80.1043Z" fill="#B5B9C7"/>
<path d="M461.707 82.3027C461.504 83.5393 460.22 84.5011 458.191 84.982C454.201 85.1194 449.468 84.6385 444.938 83.4706C441.692 82.6462 438.649 81.547 436.012 80.3104C433.713 78.5929 432.428 76.6693 432.698 75.0205C433.239 71.5855 439.866 70.4176 447.44 72.2725C455.081 74.1961 462.316 78.9364 461.707 82.3027Z" fill="#9295A1"/>
<path d="M657.06 241.068L540.755 68.0818C540.755 68.0818 402.134 120.5 411.601 147.911C412.007 149.285 412.75 150.316 413.697 151.071L527.839 320.898L657.06 241.068Z" fill="url(#paint6_linear_16_308)"/>
<path d="M657.06 241.068C657.06 241.068 518.44 293.486 527.839 320.898C537.238 348.378 659.9 256.801 659.9 256.801L657.06 241.068Z" fill="url(#paint7_linear_16_308)"/>
<path d="M537.374 83.8141C537.374 83.8141 475.366 108.134 463.195 117.477L564.895 265.732C564.895 265.732 623.453 235.778 638.6 233.305L537.374 83.8141Z" fill="url(#paint8_linear_16_308)"/>
<path d="M457.853 121.393L557.795 270.472C557.795 270.472 535.886 282.014 531.626 289.571L431.278 140.835C431.278 140.835 433.51 133.484 457.853 121.393Z" fill="url(#paint9_linear_16_308)"/>
<path d="M696.753 127.439C684.108 116.515 693.372 102.088 693.372 102.088L665.242 94.4625L637.113 86.9055C637.113 86.9055 638.127 104.081 621.763 107.172C605.467 110.264 591.943 104.287 571.522 182.33C551.1 260.304 568.343 262.228 617.841 275.624C667.339 289.021 683.229 296.028 703.65 217.985C724.072 139.942 709.398 138.362 696.753 127.439Z" fill="url(#paint10_linear_16_308)"/>
<path d="M695.874 102.775L634.678 86.2186L638.127 72.9595L699.323 89.5162L695.874 102.775Z" fill="url(#paint11_linear_16_308)"/>
<path d="M666.324 474.923C651.719 481.45 637.924 485.091 631.906 480.076C631.545 479.755 631.207 479.411 630.892 479.045C627.646 475.198 627.646 467.641 632.785 455C646.377 421.268 669.097 419.963 691.344 413.437C713.388 406.979 709.939 383.346 709.871 382.728C727.994 437.894 691.073 463.794 666.324 474.923Z" fill="url(#paint12_linear_16_308)"/>
<path d="M631.906 480.076C631.545 479.755 631.207 479.412 630.892 479.045C634.746 472.725 642.928 460.702 651.921 455.069C656.249 452.39 661.05 450.191 666.121 447.855C675.656 443.39 685.596 438.787 693.237 430.68L694.251 431.574C686.407 439.955 676.332 444.558 666.662 449.092C661.591 451.359 656.858 453.558 652.665 456.168C643.807 461.664 635.625 473.893 631.906 480.076Z" fill="url(#paint13_linear_16_308)"/>
<path d="M697.227 518.135C678.902 517.654 670.179 501.166 644.754 523.357C622.845 542.524 602.694 512.571 597.555 504.052C596.744 502.678 596.338 501.853 596.338 501.853C596.338 501.853 596.744 502.06 597.352 502.334C601.612 504.189 617.841 510.235 624.265 498.075C631.703 483.991 648.608 466.198 664.837 474.992C680.998 483.717 687.286 471.282 701.892 463.862C716.498 456.443 732.794 478.702 732.794 478.702C732.794 478.702 715.551 518.685 697.227 518.135Z" fill="url(#paint14_linear_16_308)"/>
<path d="M642.59 502.266C638.127 507.556 633.461 513.052 624.873 514.838C613.243 517.311 603.235 509.754 597.555 504.052C596.744 502.678 596.338 501.853 596.338 501.853C596.338 501.853 596.744 502.06 597.352 502.334C602.627 507.968 612.77 516.349 624.671 513.807C632.92 512.09 637.451 506.731 641.846 501.579C646.918 495.602 652.192 489.487 662.943 489.075C667.744 488.938 671.734 490.106 675.588 491.205C681.133 492.785 686.407 494.296 693.034 491.274L693.44 492.235C686.475 495.396 681.065 493.816 675.318 492.167C671.531 491.068 667.609 489.968 663.011 490.174C652.665 490.518 647.797 496.22 642.59 502.266Z" fill="url(#paint15_linear_16_308)"/>
<path d="M311.524 400.04C304.153 423.673 338.166 474.992 343.238 482.48C343.643 483.098 343.846 483.442 343.846 483.442C343.846 483.442 342.561 483.167 340.33 482.686C325.454 479.389 268.788 464.206 265.745 423.879C262.229 377.506 241.335 394.613 210.23 361.225C179.125 327.905 208.81 289.364 208.81 289.364C265.745 307.295 319.435 374.484 311.524 400.04Z" fill="#609A3E"/>
<path d="M343.846 483.442C343.846 483.442 342.561 483.167 340.33 482.686C339.564 482.091 338.82 481.518 338.098 480.969C323.493 469.496 304.897 453.42 299.488 441.741C296.174 434.665 293.537 426.146 290.968 417.971C285.626 400.727 280.013 382.865 268.315 376.201C250.396 365.965 240.997 341.096 240.591 339.996L242.417 339.309C242.552 339.584 251.951 364.591 269.262 374.415C281.636 381.491 287.316 399.697 292.861 417.353C295.363 425.528 298 433.909 301.246 440.848C306.588 452.39 326.062 469.358 343.238 482.48C343.643 483.098 343.846 483.442 343.846 483.442Z" fill="url(#paint16_linear_16_308)"/>
<path d="M331.269 445.039C333.433 467.023 348.444 475.267 353.11 477.259C353.989 477.671 354.462 477.808 354.462 477.808C353.606 478.175 352.547 478.495 351.284 478.77C335.529 482.205 290.359 478.564 276.632 454.588C261.756 428.619 244.919 452.252 218.209 436.039C181.829 413.917 204.888 376.476 204.888 376.476C202.791 392.277 235.384 417.009 264.19 413.711C293.064 410.414 328.699 419.001 331.269 445.039Z" fill="#609A3E"/>
<path d="M304.424 453.076C310.983 461.664 317.204 469.771 326.603 470.87C334.853 471.832 344.455 474.442 353.11 477.259C353.989 477.671 354.462 477.808 354.462 477.808C353.606 478.175 352.546 478.495 351.284 478.77C343.035 476.091 334.109 473.686 326.4 472.862C316.122 471.694 309.698 463.244 302.869 454.313C295.16 444.145 287.113 433.634 272.845 432.947C245.459 431.573 228.352 422.161 228.216 422.093L229.163 420.307C229.298 420.444 246.068 429.581 272.913 430.955C288.127 431.711 296.377 442.565 304.424 453.076Z" fill="url(#paint17_linear_16_308)"/>
<path d="M748.753 208.505C748.753 208.505 686.543 344.187 635.963 566.363H332.824C282.245 344.187 220.034 208.505 220.034 208.505H748.753Z" fill="url(#paint18_linear_16_308)"/>
<path d="M569.358 405.948L552.182 424.978C558.539 430.886 563.34 440.711 562.46 446C562.325 446.894 561.987 448.748 557.862 450.535C547.449 455.069 516.885 453.351 495.382 450.466L496.802 438.1L445.952 456.512L490.784 489.144L492.339 476.16C501.738 477.396 517.899 479.183 533.79 479.183C546.638 479.183 559.35 478.015 567.802 474.305C578.757 469.565 585.722 461.114 587.547 450.329C590.32 433.978 580.042 415.841 569.358 405.948Z" fill="url(#paint19_linear_16_308)"/>
<path d="M436.282 377.575L447.372 385.613L455.824 331.478L406.191 355.729L415.591 362.53C405.38 376.682 382.998 409.796 380.969 430.543C379.82 442.565 383.809 452.87 392.194 459.603C399.7 465.649 409.708 467.984 419.58 467.984C426.613 467.984 433.577 466.748 439.325 464.756L431.075 440.367C422.893 443.184 412.142 442.703 408.017 439.405C407.273 438.856 405.853 437.688 406.327 433.085C407.409 421.681 423.434 395.369 436.282 377.575Z" fill="url(#paint20_linear_16_308)"/>
<path d="M551.912 354.423C545.759 338.828 529.395 300.494 512.625 287.578C503.226 280.227 492.474 278.304 482.399 282.014C467.049 287.647 456.568 305.646 453.39 320.005L478.139 325.707C480.032 317.188 486.118 308.12 491.054 306.265C491.933 305.99 493.624 305.303 497.208 308.12C506.404 315.196 520.333 343.844 528.448 364.385L516.682 369.4L557.66 405.193L563.407 349.546L551.912 354.423Z" fill="url(#paint21_linear_16_308)"/>
<path d="M640.764 322.615C640.764 322.615 638.195 318.081 642.252 305.921C646.174 294.173 659.698 295.204 664.025 302.761C668.353 310.318 666.865 314.99 660.509 323.508C654.22 331.958 643.401 326.531 640.764 322.615Z" fill="#EEA886"/>
<path d="M672.207 531.807C672.207 531.807 672.883 536.822 673.019 537.578C673.086 538.333 680.457 537.097 680.457 537.097L681.065 531.188C681.065 531.188 673.154 531.12 672.207 531.807Z" fill="#EEA886"/>
<path d="M672.884 536.891C672.884 536.891 670.584 539.913 668.285 541.219C666.054 542.524 662.538 543.074 661.185 544.448C660.171 545.409 657.669 549.6 667.068 549.531C676.4 549.463 680.93 550.15 681.945 548.501C682.959 546.921 680.525 536.547 680.525 536.547C680.525 536.547 678.225 537.234 672.884 536.891Z" fill="#152B3D"/>
<path d="M621.154 531.807C621.154 531.807 621.831 536.822 621.966 537.578C622.033 538.333 629.404 537.097 629.404 537.097L630.013 531.188C630.013 531.188 622.101 531.12 621.154 531.807Z" fill="#EEA886"/>
<path d="M621.831 536.891C621.831 536.891 619.532 539.913 617.232 541.219C615.001 542.524 606.684 543.623 605.331 544.997C604.385 545.959 602.762 549.944 616.015 549.531C625.347 549.257 629.877 550.15 630.892 548.501C631.906 546.921 629.472 536.547 629.472 536.547C629.472 536.547 626.496 537.097 621.831 536.891Z" fill="#152B3D"/>
<path d="M669.773 407.46C669.773 407.46 673.56 419.414 673.019 429.719C672.545 439.955 674.98 451.222 675.994 462.008C677.144 473.961 681.674 502.334 681.877 508.724C682.012 515.113 681.133 535.585 681.133 535.585L672.004 535.86C672.004 535.86 664.296 486.259 662.335 481.175C660.306 476.16 650.434 440.092 650.096 436.039C649.758 431.986 669.773 407.46 669.773 407.46Z" fill="#323657"/>
<path d="M631.771 406.223C631.771 406.223 626.226 437.825 625.55 444.077C624.874 450.397 624.468 474.58 624.13 478.496C623.792 482.411 621.898 529.952 620.14 535.86H630.351C630.351 535.86 640.832 501.235 640.832 484.885C640.832 468.534 647.797 449.367 652.259 438.581C656.722 427.726 667.001 427.52 669.773 407.46C669.773 407.46 635.49 399.903 631.771 406.223Z" fill="#323657"/>
<path d="M644.483 325.844C644.483 325.844 645.633 329.21 644.483 331.684C643.334 334.088 659.157 332.645 659.157 332.645C659.157 332.645 658.48 327.63 660.509 323.508C662.605 319.386 644.483 325.844 644.483 325.844Z" fill="#EEA886"/>
<path d="M642.049 332.439C642.049 332.439 636.234 333.058 634.543 333.401C632.853 333.745 621.56 331.34 619.261 331.065C616.962 330.859 607.09 323.989 606.819 323.165C606.481 322.34 600.801 307.776 600.463 304.616C600.125 301.456 594.918 303.104 595.391 305.234C596.203 309.287 597.285 319.18 597.893 322.066C598.502 325.157 600.192 332.165 601.207 333.058C602.153 333.882 611.012 340.752 619.734 343.706C628.39 346.592 634.949 350.92 634.949 350.92H677.752C677.752 350.92 694.454 326.669 694.792 323.027C695.13 319.386 683.162 295.135 680.795 292.112C678.361 289.09 674.912 293.143 674.912 293.143C674.912 293.143 682.08 314.509 683.026 317.531C683.973 320.554 674.709 333.882 672.14 333.951C669.57 334.019 663.011 333.126 660.103 332.989C657.196 332.92 654.153 331.615 654.153 331.615L642.049 332.439Z" fill="#EEA886"/>
<path d="M623.589 348.584C623.589 348.584 628.863 352.156 629.336 358.202C629.81 364.316 631.703 373.934 632.65 377.163C633.664 380.461 631.838 404.3 631.635 406.017C631.365 407.666 664.769 411.719 669.908 407.666C669.908 407.666 671.328 385.476 671.937 379.155C672.478 372.835 675.385 357.515 676.332 355.454C677.279 353.393 688.909 336.836 689.383 334.638C689.383 334.638 683.365 324.951 679.037 324.814C679.037 324.814 672.207 332.989 669.976 333.332C667.744 333.676 654.085 331.134 654.085 331.134C654.085 331.134 652.598 333.195 644.686 330.791C644.686 330.791 635.219 331.821 633.732 332.027C631.838 332.302 618.923 330.378 618.923 330.378C618.923 330.378 613.716 339.309 614.595 343.775L623.589 348.584Z" fill="#FF8447"/>
<path d="M600.801 306.471C600.801 306.471 599.584 300.837 601.004 299.257C601.815 298.295 603.708 295.891 603.911 295.547C604.114 295.204 606.143 293.967 606.143 293.418C606.143 292.799 604.114 292.112 602.356 293.761C600.598 295.41 599.516 295.753 598.772 295.547C598.096 295.41 597.082 289.433 597.014 287.99C596.879 286.479 596.338 282.632 595.459 282.838C594.512 283.113 594.58 284.83 594.58 284.83C594.58 284.83 593.498 281.876 592.822 282.494C592.078 283.044 592.213 284.487 592.213 284.487C592.213 284.487 590.861 282.838 590.523 284.006C590.185 285.242 590.523 286.342 590.523 286.342C590.523 286.342 589.17 285.586 589.035 287.441C588.967 289.296 589.441 294.792 590.455 296.784C591.402 298.776 595.053 303.929 595.459 305.921C595.865 307.913 600.801 306.471 600.801 306.471Z" fill="#EEA886"/>
<path d="M676.062 296.578C676.062 296.578 672.072 289.777 670.72 289.227C669.367 288.609 667.474 288.265 665.783 287.029C664.093 285.792 661.929 284.83 661.997 284.418C662.132 284.006 664.093 284.143 666.257 285.105C668.353 285.998 669.3 285.586 669.502 285.105C669.638 284.624 668.353 281.189 667.677 280.365C667.068 279.54 662.538 274.869 663.281 274.182C664.025 273.495 667.001 276.037 667.474 276.586C667.474 276.586 665.107 271.571 666.054 271.365C666.933 271.09 668.691 272.876 668.691 272.876C668.691 272.876 668.488 268.548 673.019 275.556C673.019 275.556 672.072 273.22 673.424 273.976C674.844 274.8 676.197 279.128 676.67 281.327C677.076 283.456 679.037 290.464 680.795 292.112C682.485 293.83 676.062 296.578 676.062 296.578Z" fill="#EEA886"/>
<path d="M660.509 323.508C660.509 323.508 658.413 323.646 653.95 322.134C649.487 320.554 649.149 312.585 648.202 313.547C646.241 315.47 644.416 314.165 643.672 312.997C643.672 312.997 645.836 310.112 644.821 308.669C643.807 307.295 642.184 306.265 642.184 306.265C642.184 306.265 645.295 290.876 659.562 297.883C676.332 306.127 660.509 323.508 660.509 323.508Z" fill="#353A3D"/>
<path d="M644.483 331.684L644.957 329.416C644.957 329.416 654.085 329.279 659.089 329.966L659.63 332.645C659.63 332.645 653.206 335.599 644.483 331.684Z" fill="#FF8447"/>
<path d="M646.715 311.623C647.526 310.181 650.637 309.287 650.975 313.203C651.245 316.295 645.497 319.661 645.43 316.776C645.362 313.959 646.174 312.516 646.715 311.623Z" fill="#EEA886"/>
<path d="M600.53 305.234C600.53 305.234 597.285 305.303 595.662 306.746C595.662 306.746 595.527 307.707 595.932 308.463C595.932 308.463 598.772 307.089 600.936 306.814C600.936 306.814 600.936 305.578 600.53 305.234Z" fill="#E55353"/>
<path d="M596.676 306.059C596.338 306.814 596.676 307.639 597.42 307.914C598.164 308.257 598.975 307.914 599.313 307.158C599.584 306.471 599.246 305.578 598.502 305.303C597.826 304.959 596.947 305.303 596.676 306.059Z" fill="#353A3D"/>
<path d="M690.329 550.974H600.868L629.066 638.91L626.429 639.735L597.082 548.157H692.29L721.367 638.91L718.73 639.735L690.329 550.974Z" fill="#3F74A0"/>
<path d="M659.9 638.91L688.03 550.974H598.637L570.169 639.735L567.532 638.91L596.608 548.157H691.885L662.538 639.735L659.9 638.91Z" fill="#3F74A0"/>
<path d="M698.647 578.66H589.17V575.844H698.647V578.66Z" fill="#3F74A0"/>
<path d="M709.871 609.232H578.96V606.415H709.871V609.232Z" fill="#3F74A0"/>
<path d="M427.627 376.064C427.627 376.064 427.221 372.354 428.1 371.049C428.979 369.743 431.955 368.576 435.809 367.614C439.393 366.721 447.71 363.767 448.048 364.179C448.319 364.591 447.98 366.858 441.895 370.362C435.809 373.934 433.78 374.621 433.375 376.888C433.037 379.155 427.627 376.064 427.627 376.064Z" fill="#EEA886"/>
<path d="M350.879 380.598C350.879 380.598 350.676 374.484 349.729 373.178C348.85 371.873 345.942 370.774 342.088 369.743C338.504 368.85 330.863 364.797 330.525 365.209C330.255 365.621 329.916 368.988 336.002 372.56C342.02 376.064 344.117 376.751 344.455 379.018C344.86 381.354 350.879 380.598 350.879 380.598Z" fill="#EEA886"/>
<path d="M395.44 424.91C395.44 424.91 382.66 433.772 383.268 428.345C383.945 422.917 382.525 417.284 382.525 417.284C382.525 417.284 395.237 411.65 394.696 415.704C394.561 416.597 394.493 417.627 394.561 418.589C394.561 419.757 394.696 420.856 394.831 421.887C395.102 423.604 395.44 424.91 395.44 424.91Z" fill="#EEA886"/>
<path d="M436.756 610.262C436.756 610.262 440.677 612.461 442.3 614.041C443.923 615.552 451.226 614.796 452.714 618.85C454.269 622.972 447.439 625.033 440.001 622.834C432.563 620.636 431.346 619.124 428.844 617.888C426.207 616.583 428.979 609.781 428.979 609.781L436.756 610.262Z" fill="#3F74A0"/>
<path d="M362.103 599.82C362.103 599.82 362.171 602.98 362.577 606.071C363.05 609.163 366.769 615.758 366.499 618.3C366.228 620.773 361.698 624.483 356.694 618.506C352.975 613.972 354.192 606.69 353.042 604.629C351.825 602.499 352.096 597.896 354.801 595.011C357.505 592.057 362.103 599.82 362.103 599.82Z" fill="#3F74A0"/>
<path d="M415.861 493.541C415.861 493.541 435.471 531.257 436.147 536.547C436.823 541.837 437.567 598.515 438.446 602.224C439.257 605.934 437.229 607.652 437.229 607.652C437.229 607.652 430.67 610.331 428.709 607.308C426.748 604.354 427.356 602.568 427.356 602.568C427.356 602.568 420.865 556.951 420.053 549.463C419.174 541.974 398.348 509.96 396.454 512.914C394.561 515.8 391.112 543.348 389.489 547.264C387.934 551.249 364.402 597.69 362.577 597.69C360.819 597.69 353.989 596.66 355.071 591.164C356.085 585.736 371.435 545.409 371.435 540.875C371.435 536.272 376.236 493.472 377.453 487.701C378.67 481.931 415.861 493.541 415.861 493.541Z" fill="#3C4585"/>
<path d="M436.688 610.674L436.891 608.339L428.844 607.652L429.047 610.125C429.047 610.125 429.182 611.43 433.036 611.705C436.891 611.98 436.688 610.674 436.688 610.674Z" fill="#DB9C7C"/>
<path d="M362.577 597.69C362.577 597.69 361.968 600.507 361.765 601.056C361.63 601.675 356.897 602.224 355.544 599.682C354.124 597.14 354.801 596.522 354.936 595.354C355.071 594.53 355.477 593.637 355.477 593.637L362.577 597.69Z" fill="#DB9C7C"/>
<path d="M438.919 607.652C438.919 607.652 434.118 610.193 427.627 608.407C427.627 608.407 426.477 605.247 427.356 602.568C427.356 602.568 431.819 604.904 438.311 601.469C438.311 601.469 439.393 604.148 438.919 607.652Z" fill="#4E5AAD"/>
<path d="M382.525 498.831C382.66 497.388 382.727 496.907 382.727 496.907L382.119 496.77C382.119 496.77 382.051 497.319 381.984 498.762L382.525 498.831Z" fill="#C24646"/>
<path d="M358.722 586.629C359.263 585.393 359.94 584.019 360.616 582.507L361.089 582.851C360.413 584.362 359.804 585.736 359.196 586.973L358.722 586.629ZM362.509 578.385C363.095 577.057 363.704 575.683 364.335 574.263L364.876 574.607C364.245 575.981 363.614 577.355 362.983 578.729L362.509 578.385ZM366.228 570.073C366.859 568.699 367.491 567.325 368.122 565.951L368.595 566.225C368.009 567.645 367.4 569.042 366.769 570.416L366.228 570.073ZM369.88 561.76C370.556 560.317 371.165 558.875 371.705 557.569L372.179 557.913C371.638 559.195 371.052 560.592 370.421 562.103L369.88 561.76ZM373.464 553.379C374.14 551.73 374.703 550.333 375.154 549.188L375.627 549.463C375.222 550.608 374.658 552.005 373.937 553.653L373.464 553.379ZM376.574 544.86C376.845 543.623 377.138 542.112 377.453 540.326L377.994 540.463C377.656 542.249 377.386 543.761 377.115 544.997L376.574 544.86ZM378.129 535.791C378.355 534.326 378.558 532.769 378.738 531.12L379.346 531.257C379.121 532.906 378.918 534.44 378.738 535.86L378.129 535.791ZM379.279 526.586C379.459 525.12 379.64 523.586 379.82 521.983L380.361 522.051C380.18 523.654 380.023 525.189 379.887 526.654L379.279 526.586ZM380.293 517.311C380.428 515.868 380.564 514.288 380.699 512.708L381.307 512.777C381.127 514.38 380.969 515.937 380.834 517.448L380.293 517.311ZM381.172 508.037C381.307 506.479 381.443 504.922 381.578 503.365L382.187 503.434C382.051 504.991 381.916 506.548 381.781 508.105L381.172 508.037Z" fill="#5360B8"/>
<path d="M356.491 593.018C356.491 593.018 356.829 592.263 357.37 590.957L356.897 590.683C356.288 591.919 355.95 592.675 355.95 592.675L356.491 593.018Z" fill="#C24646"/>
<path d="M364.2 597.965C364.2 597.965 355.341 598.102 353.989 591.919C353.989 591.919 355.071 588.553 356.085 587.66C356.085 587.66 357.573 592.675 365.755 593.156C365.755 593.156 365.214 596.247 364.2 597.965Z" fill="#4E5AAD"/>
<path d="M385.094 392.552C385.094 392.552 396.454 388.498 396.928 402.788C397.469 417.284 395.913 418.864 391.315 419.963C386.717 420.994 381.646 419.413 377.588 408.628C373.734 398.391 377.926 393.445 385.094 392.552Z" fill="#EEA886"/>
<path d="M435.065 409.246C434.118 411.513 424.178 426.696 422.961 429.512C421.812 432.26 416.943 439.337 416.537 440.367C416.132 441.398 414.712 452.939 413.427 456.305C412.142 459.672 413.359 482.618 413.9 486.327C414.373 490.037 415.861 493.541 415.861 493.541C415.861 493.541 395.71 498.006 375.763 499.518C375.763 499.518 377.047 489.831 376.777 486.121C376.574 482.411 372.111 459.191 370.285 455.55C368.392 451.909 351.217 426.352 350.54 425.322C349.864 424.291 342.561 412.406 342.223 409.658C341.885 406.91 343.914 385.064 343.914 382.178C343.914 378.537 343.981 379.018 343.981 379.018L351.622 379.636C351.622 379.636 352.163 392.002 352.704 395.506C353.178 399.01 356.018 410.139 356.491 412.063C357.032 413.986 369.136 430.955 371.3 430.955C372.652 430.955 376.439 429.512 379.482 428.276C381.307 427.52 382.93 426.833 383.539 426.558C385.162 425.734 394.223 423.261 397.333 423.604C397.333 423.604 398.077 423.742 399.227 423.81C401.796 424.085 406.462 424.429 408.829 423.604C412.21 422.505 413.968 419.757 415.996 417.49C418.025 415.223 424.787 407.391 425.26 405.742C425.801 404.093 426.139 389.529 426.342 385.407C426.545 381.285 426.41 376.751 426.342 376.201C426.207 375.72 435.133 375.171 434.997 376.613C434.795 378.056 434.659 389.941 435.065 395.231C435.403 400.384 435.944 406.91 435.065 409.246Z" fill="#F5F5F5"/>
<path d="M378.806 411.513C378.806 411.513 377.926 409.315 378.738 408.765C379.82 408.078 380.428 409.04 380.428 409.04L381.578 408.902C381.578 408.902 379.346 404.643 382.863 403.887C386.379 403.063 393.749 402.445 395.643 401.002C395.643 401.002 396.454 404.3 396.522 404.918C396.59 405.536 396.995 404.78 396.995 404.78C396.995 404.78 397.671 394.407 391.18 390.972C384.621 387.468 377.453 391.59 376.304 395.575C375.154 399.49 374.816 403.406 378.806 411.513Z" fill="#665249"/>
<path d="M378.941 406.154C378.941 406.154 377.724 405.193 377.521 406.223C377.318 407.254 379.617 411.719 380.225 411.788C380.834 411.788 380.428 407.391 378.941 406.154Z" fill="#EEA886"/>
<path d="M394.831 421.887C387.19 423.329 384.283 418.727 384.283 418.727C389.287 422.162 394.493 418.658 394.561 418.589C394.561 419.757 394.696 420.856 394.831 421.887Z" fill="#A77860"/>
<path d="M394.628 443.527C385.365 444.077 379.482 428.276 379.482 428.276C381.307 427.52 382.863 426.833 383.539 426.558C385.162 425.734 394.088 423.192 397.333 423.604C397.333 423.604 398.077 423.742 399.227 423.81C399.227 423.81 403.96 442.909 394.628 443.527Z" fill="#EEA886"/>
<path d="M331.81 314.715C341.818 308.12 449.265 316.913 449.265 316.913L448.319 371.324C448.319 371.324 443.112 371.598 434.862 371.873C405.65 372.904 338.437 374.621 330.863 369.194C321.194 362.186 312.471 347.966 286.572 346.592C260.742 345.218 255.332 345.973 255.332 345.973L255.535 335.119C255.535 335.119 260.877 336.149 286.775 335.668C312.741 335.256 321.87 321.379 331.81 314.715Z" fill="url(#paint22_linear_16_308)"/>
<path d="M243.498 452.321C243.498 452.321 230.245 491.686 229.366 496.083C228.487 500.96 218.073 535.929 218.073 535.929C218.073 535.929 196.3 514.288 189.47 508.724C182.641 503.228 234.099 451.153 243.498 452.321Z" fill="#FF8447"/>
<path d="M250.396 604.835C250.396 604.835 254.791 603.049 256.617 602.293C258.442 601.469 258.713 599.751 259.457 600.919C260.201 602.087 263.987 605.522 266.016 606.003C268.044 606.415 281.298 608.476 281.568 611.499C281.839 614.59 275.685 615.621 266.963 616.102C258.24 616.583 258.037 618.85 252.221 617.338C250.463 616.857 250.396 604.835 250.396 604.835Z" fill="#152B3D"/>
<path d="M122.189 555.302C122.189 555.302 124.353 559.424 125.299 561.073C126.178 562.79 127.869 562.859 126.855 563.752C125.84 564.576 122.933 568.699 122.73 570.691C122.527 572.752 121.918 586.011 119.078 586.561C116.171 587.11 114.548 581.202 113.195 572.683C111.843 564.164 109.611 564.233 110.491 558.325C110.761 556.539 122.189 555.302 122.189 555.302Z" fill="#152B3D"/>
<path d="M268.112 461.321C268.112 461.321 270.276 457.405 270.614 456.786C270.952 456.237 272.643 455.412 274.671 454.657C276.7 453.832 279.743 453.764 280.081 453.97C280.351 454.176 280.757 454.244 281.095 455.206C281.366 456.099 281.163 457.061 281.163 457.061C281.163 457.061 282.109 458.023 281.704 459.122C281.704 459.122 282.515 460.084 281.906 461.321C281.906 461.321 282.65 462.214 282.109 463.107C282.109 463.107 280.419 463.931 279.878 464.412C279.337 464.893 275.753 466.404 272.034 467.229C272.034 467.229 267.977 468.397 268.112 461.321Z" fill="#EEA886"/>
<path d="M274.198 459.74C274.198 459.74 273.995 462.008 273.589 462.626C273.251 463.175 277.849 465.168 277.849 465.168C277.849 465.168 276.835 460.084 274.198 459.74Z" fill="#CF8C6C"/>
<path d="M197.382 488.388C193.73 491.205 188.929 501.991 185.548 510.441C185.481 510.578 177.434 527.066 174.391 531.738C169.793 538.677 164.113 538.058 154.241 541.837C146.261 544.928 120.972 554.203 120.972 554.203L126.855 566.225C126.855 566.225 165.127 557.294 177.434 552.142C183.655 549.531 204.144 531.944 204.144 531.944C206.713 529.814 209.012 527.685 210.973 525.898C212.596 524.387 213.881 523.082 215.031 521.983C216.992 520.059 218.073 518.822 218.073 518.822C218.073 518.822 200.357 486.121 197.382 488.388Z" fill="#323657"/>
<path d="M228.487 436.657L239.374 464.549C239.374 464.549 239.915 468.397 247.826 465.786C255.873 463.107 268.856 459.603 268.856 459.603C268.856 459.603 273.454 469.358 272.507 469.977C269.735 471.557 247.42 480.007 238.089 482.618C230.718 484.679 215.572 444.42 215.572 444.42L228.487 436.657Z" fill="#FF8447"/>
<path d="M247.691 546.302C247.826 541.631 242.687 528.509 238.833 520.54C232.747 507.83 226.526 494.571 226.526 494.571C226.526 494.571 191.161 494.571 191.228 498.418C191.364 505.701 207.998 523.494 210.771 526.723L212.529 526.585C212.529 526.585 219.088 532.975 221.793 537.921C225.647 545.066 227.608 550.012 230.177 559.424C232.409 567.737 248.164 607.171 248.164 607.171L262.838 602.087C262.838 602.087 247.42 553.516 247.691 546.302Z" fill="#323657"/>
<path d="M189.47 496.083C189.47 496.083 213.611 469.977 211.514 453.008C211.334 451.68 211.244 450.351 211.244 449.023C211.244 447.283 211.379 445.565 211.65 443.871C213.137 433.978 219.02 425.803 226.391 421.749C226.391 421.749 226.323 419.62 236.466 429.512C237.007 430.062 242.687 440.161 243.431 451.153C244.378 464.618 240.591 467.366 235.925 477.602C232.476 485.091 227.608 491.617 226.526 494.571C226.526 494.571 223.821 498.968 189.47 496.083Z" fill="#443C7D"/>
<path d="M237.075 420.925C237.075 420.925 236.939 421.475 236.804 422.299C236.669 422.917 236.534 423.742 236.331 424.566C235.925 426.902 235.452 429.719 235.587 431.024C235.857 433.497 226.594 422.162 226.594 422.162C226.594 422.162 228.284 414.33 228.825 405.399C229.298 396.399 237.075 420.925 237.075 420.925Z" fill="#EEA886"/>
<path d="M236.804 422.161C236.669 422.78 236.534 423.742 236.331 424.566C232.882 421.955 229.907 419.276 229.231 418.108C230.583 419.963 236.804 422.161 236.804 422.161Z" fill="#A77860"/>
<path d="M233.761 462.076C233.694 462.351 233.558 462.557 233.491 462.763C233.153 463.519 232.274 464.549 231.395 465.992C224.227 478.564 216.586 495.739 213.475 507.693C210.027 521.364 208.201 532.219 208.201 532.219L181.221 507.212C181.221 507.212 190.552 486.808 200.425 474.648C211.244 461.252 208.201 430.612 208.201 430.612L223.686 423.329L225.985 420.719L234.505 427.177L239.103 430.268C239.103 430.268 236.872 451.84 233.761 462.076Z" fill="#FF8447"/>
<path d="M56.6653 454.794L56.3948 449.916L339.248 432.329L339.518 437.207L56.6653 454.794Z" fill="#DEDEDE"/>
<path d="M59.5053 501.716L59.2349 496.77L342.088 479.251L342.358 484.129L59.5053 501.716Z" fill="#DEDEDE"/>
<path d="M311.524 434.802L316.731 434.459L319.706 483.854L314.499 484.198L311.524 434.802Z" fill="#DEDEDE"/>
<path d="M273.454 437.138L278.661 436.794L281.636 486.19L276.429 486.533L273.454 437.138Z" fill="#DEDEDE"/>
<path d="M235.316 439.474L240.523 439.199L243.498 488.594L238.292 488.938L235.316 439.474Z" fill="#DEDEDE"/>
<path d="M197.179 441.878L202.386 441.535L205.361 490.93L200.154 491.274L197.179 441.878Z" fill="#DEDEDE"/>
<path d="M159.042 444.214L164.248 443.939L167.223 493.335L162.017 493.678L159.042 444.214Z" fill="#DEDEDE"/>
<path d="M120.972 446.619L126.178 446.275L129.154 495.67L123.947 496.014L120.972 446.619Z" fill="#DEDEDE"/>
<path d="M82.8341 448.955L88.0408 448.68L91.0161 498.075L85.8094 498.419L82.8341 448.955Z" fill="#DEDEDE"/>
<path d="M199.208 496.564C199.208 496.564 198.329 495.808 198.126 495.327C198.126 495.327 197.855 494.365 197.585 493.678C197.495 493.495 197.404 493.335 197.314 493.197C197.111 492.717 196.368 491.823 196.029 490.518C195.759 489.213 195.759 483.305 195.759 483.305L198.937 482.412L201.777 481.106C201.777 481.106 207.457 486.877 207.863 488.045C207.908 488.182 207.953 488.297 207.998 488.388C208.269 489.419 208.066 490.312 208.133 490.862C208.133 491.068 208.336 493.129 207.863 493.541C207.254 494.091 206.646 494.297 206.037 494.159C206.037 494.159 204.82 495.258 203.738 495.327C203.738 495.327 202.656 496.358 201.236 496.014C201.236 496.014 200.019 496.976 199.208 496.564Z" fill="#EEA886"/>
<path d="M225.241 439.405C225.241 439.405 231.395 438.993 228.352 429.581C224.227 416.803 211.988 429.718 186.089 440.504C186.089 440.504 178.786 443.458 180.883 451.359C182.979 459.191 192.175 484.266 192.784 486.739L203.13 480.969C203.13 480.969 198.396 468.534 197.179 462.007C195.894 455.55 195.015 449.504 195.015 449.504L225.241 439.405Z" fill="#FF8447"/>
<path d="M279.54 454.107C279.54 454.107 274.401 456.237 274.671 457.13C274.874 457.954 275.483 458.16 275.483 458.16L273.792 459.946C273.792 459.946 273.319 461.801 275.483 461.801C275.483 461.801 274.874 463.519 276.903 463.175C276.903 463.175 276.97 464.481 277.917 464.549C278.931 464.549 282.109 463.107 282.109 463.107C282.109 463.107 282.785 462.42 281.974 461.252C281.974 461.252 282.65 460.152 281.771 459.122C281.771 459.122 282.245 458.091 281.298 457.061C281.298 457.061 281.906 454.725 280.081 453.969C280.081 453.969 279.743 454.038 279.54 454.107Z" fill="#DB9C7C"/>
<path d="M270.749 456.718C270.749 456.718 274.468 457.061 276.429 458.16C276.903 458.435 277.308 458.779 277.241 459.259C277.173 459.74 276.362 460.359 274.739 460.29C273.116 460.221 270.952 460.908 270.952 460.908C270.952 460.908 269.329 460.29 270.749 456.718Z" fill="#EEA886"/>
<path d="M246.271 400.933C246.271 400.933 249.111 406.292 247.691 407.116C246.541 407.872 249.043 413.162 249.381 413.986C249.719 414.879 247.285 415.498 246.744 416.047C246.203 416.597 244.648 423.467 242.619 423.673C240.591 423.879 231.462 420.65 228.96 417.971C226.458 415.36 224.497 403.475 226.12 398.46C227.811 393.445 241.199 391.453 246.271 400.933Z" fill="#EEA886"/>
<path d="M246.879 402.032C246.879 402.032 247.961 398.048 242.619 393.72C237.345 389.392 229.231 394.613 228.216 395.437C227.337 396.124 221.928 400.658 223.956 407.322C227.405 418.452 227.405 417.971 227.405 417.971C227.405 417.971 228.893 411.307 230.854 410.826C233.017 410.276 235.993 409.933 235.993 409.933C235.993 409.933 234.099 404.849 237.075 404.162C239.982 403.475 243.904 400.865 246.879 402.032Z" fill="#202338"/>
<path d="M234.708 410.345C234.573 409.727 233.896 407.047 231.868 407.46C229.839 407.872 230.516 411.101 232.071 413.024C233.694 414.948 235.519 413.643 234.708 410.345Z" fill="#EEA886"/>
<path d="M227.811 395.781C227.811 395.781 220.711 397.223 221.86 402.719C223.01 408.147 226.188 414.261 226.594 415.566C227.067 416.803 227.811 395.781 227.811 395.781Z" fill="#202338"/>
<path d="M759.099 473.687C759.099 473.687 756.259 474.374 755.244 473C754.433 471.9 752.539 471.076 751.931 470.801C751.119 470.458 749.158 468.534 748.685 469.496C748.279 470.526 751.863 472.931 752.539 473.549C753.148 474.236 749.091 474.648 748.415 475.267C747.671 475.954 748.753 482.824 751.525 482.205C754.298 481.587 756.867 479.114 757.408 479.045C757.881 479.045 759.437 478.702 759.437 478.702L759.099 473.687Z" fill="#EEA886"/>
<path d="M749.023 474.992C749.023 474.992 740.638 477.465 740.165 478.083C739.759 478.702 739.895 479.183 740.706 478.977C741.517 478.77 748.888 476.847 748.888 476.847C748.888 476.847 739.421 481.45 738.948 481.862C738.677 482.137 738.948 483.03 739.421 482.961C739.827 482.892 749.429 478.908 749.429 478.908C749.429 478.908 740.638 483.236 740.368 483.717C740.097 484.129 740.571 484.885 741.247 484.61C741.923 484.335 750.308 480.831 750.308 480.831C750.308 480.831 744.087 484.404 744.087 484.953C744.087 485.297 744.29 486.053 745.845 485.091C747.468 484.129 751.39 482.274 751.39 482.274L749.023 474.992Z" fill="#EEA886"/>
<path d="M773.772 604.972C773.772 604.972 770.864 610.331 769.106 611.361C766.942 612.735 762.75 617.063 761.262 617.201C759.842 617.407 754.5 618.369 755.515 621.391C756.394 623.933 768.971 623.521 770.391 622.285C771.811 621.048 776.071 616.582 777.829 616.72C779.52 616.789 778.844 623.109 778.844 623.109H780.737C780.737 623.109 781.413 616.926 781.481 615.895C781.684 612.735 779.52 610.468 779.384 608.682C779.317 606.827 779.182 605.522 779.182 605.522L773.772 604.972Z" fill="#16202E"/>
<path d="M761.668 617.063C761.668 617.063 765.861 618.575 769.039 616.651C772.284 614.796 778.37 611.98 780.534 611.98C780.534 611.98 779.384 608.27 779.317 607.858C779.317 607.445 779.182 605.522 779.182 605.522L773.84 604.629C773.84 604.629 770.323 609.85 768.836 611.086C767.281 612.254 763.359 615.346 761.668 617.063Z" fill="#EEA886"/>
<path d="M824.487 609.987C824.487 609.987 823.946 613.697 823.405 614.659C822.796 615.69 821.241 620.773 820.565 621.735C819.821 622.697 818.266 629.91 820.565 630.735C822.796 631.628 828.138 633.071 829.896 630.185C831.722 627.3 831.925 624.414 831.655 622.216C831.384 620.018 829.22 609.919 829.288 608.957C829.288 607.926 824.487 609.987 824.487 609.987Z" fill="#EEA886"/>
<path d="M821.444 619.743C821.444 619.743 821.173 625.376 825.366 625.376C829.491 625.376 831.316 620.292 831.316 620.292C831.316 620.292 832.736 622.766 831.316 628.055C829.896 633.414 824.013 632.315 822.729 632.109C821.376 631.903 815.155 630.254 821.444 619.743Z" fill="#16202E"/>
<path d="M817.59 482.892C817.59 482.892 822.999 489.831 824.892 494.434C826.786 499.037 829.896 509.067 829.491 516.899C829.085 524.662 826.515 539.295 827.259 542.593C828.003 545.89 828.747 552.76 829.558 555.096C830.302 557.432 833.48 564.302 833.818 571.309C834.089 578.385 831.587 609.3 831.79 612.186C831.993 615.071 822.593 613.285 822.593 613.285C822.593 613.285 822.323 585.393 821.309 580.584C820.227 575.843 819.01 559.493 818.063 558.325C817.116 557.157 814.411 544.722 814.276 542.73C814.073 540.738 802.848 506.937 802.24 501.167C801.631 495.396 787.499 482.892 787.499 482.892C787.499 482.892 801.361 477.534 817.59 482.892Z" fill="#323657"/>
<path d="M782.698 606.484C784.726 606.209 790.068 574.95 789.392 569.386C788.784 563.89 788.175 552.005 789.933 547.196C791.15 544.035 798.453 527.959 803.389 516.693C804.066 515.113 804.742 513.601 805.283 512.296C806.838 508.586 807.92 505.976 807.92 505.495C807.988 503.365 814.885 466.542 787.837 482.892C787.837 482.892 787.499 485.846 787.228 486.877C786.89 487.976 779.655 515.181 778.911 525.624C778.167 536.135 776.274 544.997 776.003 547.196C775.665 549.463 776.274 556.951 776.95 558.806C777.559 560.729 772.825 604.148 772.487 605.178C772.217 606.278 780.737 606.827 782.698 606.484Z" fill="#323657"/>
<path d="M790.609 427.726C790.609 427.726 786.214 428.894 784.524 432.948C782.833 437.07 783.239 442.634 783.036 444.489C782.901 446.413 779.046 464.962 778.641 465.443C778.235 465.992 771.135 467.435 766.942 468.534C760.992 470.114 755.785 471.9 755.785 471.9L758.152 479.801C758.152 479.801 785.2 474.03 786.62 471.351C789.798 465.305 795.546 445.657 795.546 445.657C795.546 445.657 801.023 430.131 790.609 427.726Z" fill="#BA3838"/>
<path d="M798.453 424.841C798.453 424.841 793.314 427.245 791.488 427.658C789.73 428.001 782.833 437.069 781.616 440.436C780.399 443.733 781.616 448.748 784.118 454.588C786.62 460.427 784.253 462.42 785.403 468.259C786.552 474.099 787.499 486.465 787.296 489.762C787.093 492.991 816.102 493.61 822.661 487.701C822.661 487.701 816.034 477.602 815.223 476.091C814.344 474.648 815.088 466.817 815.832 464.756C816.643 462.763 824.825 446.481 824.825 446.481C824.825 446.481 826.11 432.329 822.255 429.306C818.874 426.696 809.813 425.734 808.19 425.116C806.5 424.566 801.767 424.291 798.453 424.841Z" fill="#EDDAD3"/>
<path d="M796.763 436.382L793.652 432.741L796.357 422.986C796.357 422.986 797.304 428.413 796.763 436.382Z" fill="#D6C5BE"/>
<path d="M795.951 418.795C795.951 418.795 796.966 428.345 796.763 431.436C796.763 431.436 802.105 436.863 808.19 425.116C808.19 425.116 805.621 420.307 807.514 413.711C809.475 407.116 795.951 418.795 795.951 418.795Z" fill="#EEA886"/>
<path d="M796.763 431.436V436.382L802.916 431.78L796.763 431.436Z" fill="#EEA886"/>
<path d="M796.763 436.382L799.332 433.222L807.92 424.566L810.692 427.245L796.763 436.382Z" fill="#D6C5BE"/>
<path d="M806.635 494.434C809.002 506.182 826.448 493.129 826.448 493.129C826.448 493.129 815.155 473.824 819.686 458.367C819.686 458.229 819.708 458.115 819.753 458.023C820.069 457.015 820.362 456.076 820.632 455.206C824.757 442.428 828.476 439.474 828.476 439.474C828.476 439.474 823.202 427.726 818.401 426.971C813.532 426.215 809.07 425.391 809.07 425.391C809.07 425.391 801.902 436.451 801.564 441.329C801.226 446.207 804.201 482.686 806.635 494.434Z" fill="#BA3838"/>
<path d="M780.94 442.634C780.94 442.634 780.399 449.367 784.929 458.229C784.929 458.229 784.794 470.045 784.659 474.167C784.523 478.289 783.577 493.884 783.577 493.884L788.581 496.838C789.595 497.457 790.812 496.564 790.677 495.396C789.257 483.579 784.659 438.581 794.599 426.558L790.609 427.726C790.609 427.726 780.94 437.963 780.94 442.634Z" fill="#BA3838"/>
<path d="M793.652 432.741L789.73 433.841L796.357 422.986L793.652 432.741Z" fill="#FAE6DE"/>
<path d="M799.332 433.222L802.916 437.963L810.219 425.597L807.92 424.566L799.332 433.222Z" fill="#FAE6DE"/>
<path d="M799.67 388.018C795.951 387.605 787.499 389.186 785.741 399.216C785.741 399.216 785.943 401.964 786.484 404.093C787.025 406.292 784.862 412.544 785.335 412.887C785.808 413.162 787.837 413.711 787.837 413.711C787.837 413.711 789.663 420.719 792.097 420.719C794.464 420.788 803.592 419.345 808.258 410.963C812.856 402.582 814.817 389.46 799.67 388.018Z" fill="#EEA886"/>
<path d="M785.741 399.216C785.741 399.216 791.691 403.75 797.642 404.849C803.66 406.017 806.973 416.666 806.973 416.666C806.973 416.666 817.049 401.277 810.016 391.384C803.051 381.56 784.997 387.331 785.741 399.216Z" fill="#344052"/>
<path d="M800.211 404.712C800.279 403.544 801.699 401.826 803.525 403.544C805.35 405.261 802.51 410.757 800.955 410.139C799.4 409.521 800.076 405.948 800.211 404.712Z" fill="#EEA886"/>
<path d="M795.951 420.169C796.087 420.925 796.222 421.818 796.357 422.711C801.428 419.826 804.066 416.047 804.066 416.047C801.158 418.52 795.951 420.169 795.951 420.169Z" fill="#A77860"/>
<path d="M816.237 443.046C816.508 449.985 819.753 458.023 819.753 458.023C820.069 457.015 820.362 456.076 820.632 455.206C818.807 449.985 816.237 443.046 816.237 443.046Z" fill="#912B2B"/>
<path opacity="0.16" d="M709.533 467.71C697.565 451.084 703.515 426.009 722.787 411.719C742.058 397.43 767.416 399.284 779.384 415.91C782.495 420.238 784.388 425.253 785.132 430.406C785.132 430.474 789.73 459.534 802.646 480.694C809.408 490.106 806.027 504.258 795.14 512.365C784.253 520.403 769.985 519.372 763.223 509.96C747.265 490.999 721.367 477.74 721.367 477.74C716.769 475.473 712.644 472.106 709.533 467.71Z" fill="#285173"/>
<path d="M791.894 489.9L793.314 489.075L766.131 439.68L764.711 440.505L791.894 489.9Z" fill="#D88A51"/>
<path d="M775.057 502.403L773.907 503.502L735.837 462.145L736.987 461.046L775.057 502.403Z" fill="#D88A51"/>
<path d="M746.454 464.962L747.806 456.374L756.056 457.68L757.34 449.436L765.32 450.741L766.672 441.741L765.59 441.604L764.373 449.436L756.394 448.199L755.109 456.443L746.859 455.138L745.575 463.656L737.798 462.42L737.595 463.519L746.454 464.962Z" fill="#D88A51"/>
<path d="M787.228 534.692L818.604 511.403L808.867 497.869L777.559 521.158L787.228 534.692Z" fill="url(#paint23_linear_16_308)"/>
<path d="M778.167 532.837L819.618 502.128L803.998 480.351L762.547 511.128L778.167 532.837Z" fill="url(#paint24_linear_16_308)"/>
<path d="M810.895 485.984C810.895 485.984 810.151 486.465 809.408 486.396C808.123 486.327 806.838 484.885 805.35 485.984C803.863 487.014 806.162 492.442 807.109 493.06C808.055 493.747 810.49 492.923 813.262 490.243C816.034 487.633 810.895 485.984 810.895 485.984Z" fill="#EEA886"/>
<path d="M805.891 485.64C805.891 485.64 803.187 486.259 800.279 487.358C797.777 488.251 795.005 489.831 794.937 490.381C794.937 490.999 797.642 489.831 800.211 489.075C802.646 488.32 802.24 488.869 802.24 488.869C802.24 488.869 802.375 488.732 799.941 489.968C797.304 491.274 794.734 492.923 794.802 493.61C794.802 493.884 795.005 494.022 796.019 493.678C795.478 494.022 795.478 494.159 795.613 494.434C796.222 495.602 800.347 494.228 802.037 493.678C800.752 494.09 799.873 494.571 800.752 495.052C801.766 495.671 807.582 493.403 809.678 492.854C812.045 492.167 805.891 485.64 805.891 485.64Z" fill="#EEA886"/>
<path d="M815.629 426.764C815.629 426.764 822.661 425.871 826.38 433.085C830.032 440.298 830.032 443.39 830.505 446.894C830.978 450.26 833.074 459.328 833.345 460.29C833.548 461.183 838.281 472.381 836.117 476.297C833.886 480.213 811.571 491.823 811.707 492.648C811.91 493.541 807.852 483.923 807.852 483.923C807.852 483.923 816.913 478.839 818.401 477.259C820.768 474.648 825.839 471.9 824.825 468.74C823.608 465.03 819.889 452.458 819.077 450.603C818.198 448.748 810.219 429.169 815.629 426.764Z" fill="#BA3838"/>
<path d="M805.824 402.582C803.998 406.841 805.08 411.444 808.326 412.887C811.504 414.33 815.629 412.063 817.454 407.803C819.348 403.544 818.198 398.872 815.02 397.43C811.774 396.056 807.649 398.323 805.824 402.582Z" fill="#344052"/>
<path d="M780.061 289.708C779.249 288.105 778.415 286.525 777.559 284.968L778.911 284.281C779.768 285.838 780.602 287.418 781.413 289.021L780.061 289.708ZM774.583 279.609C773.547 277.777 772.51 275.991 771.473 274.25L772.758 273.495C773.84 275.235 774.877 276.998 775.868 278.785L774.583 279.609ZM768.295 269.098C767.213 267.358 766.109 265.64 764.982 263.945L766.266 263.052C767.393 264.747 768.498 266.487 769.58 268.274L768.295 269.098ZM761.533 258.793C760.361 257.098 759.189 255.45 758.017 253.847L759.234 252.885C760.451 254.534 761.646 256.205 762.818 257.9L761.533 258.793ZM268.044 251.373V249.793C270.028 249.793 272.057 249.747 274.13 249.656V251.236C272.057 251.282 270.028 251.328 268.044 251.373ZM261.959 251.305C259.862 251.236 257.834 251.167 255.805 251.03L255.941 249.45C257.902 249.587 259.93 249.725 261.959 249.725V251.305ZM280.284 250.961L280.216 249.381C282.2 249.244 284.206 249.083 286.234 248.9L286.369 250.48C284.296 250.663 282.267 250.824 280.284 250.961ZM249.787 250.549C247.691 250.343 245.662 250.068 243.701 249.793L243.904 248.213C245.865 248.557 247.894 248.763 249.922 249.038L249.787 250.549ZM292.523 249.793L292.32 248.282C294.303 248.053 296.309 247.801 298.338 247.526L298.541 249.038C296.512 249.312 294.506 249.564 292.523 249.793ZM754.365 248.9C753.103 247.297 751.818 245.717 750.511 244.16L751.728 243.129C752.99 244.732 754.253 246.358 755.515 248.007L754.365 248.9ZM237.751 248.557C235.722 248.144 233.694 247.664 231.8 247.183L232.138 245.671C234.032 246.152 236.06 246.633 238.021 247.045L237.751 248.557ZM304.694 248.144L304.491 246.633C306.43 246.312 308.413 245.969 310.442 245.603L310.712 247.183C308.684 247.503 306.678 247.824 304.694 248.144ZM316.731 246.083L316.46 244.572C318.399 244.206 320.382 243.816 322.411 243.404L322.749 244.916C320.72 245.328 318.714 245.717 316.731 246.083ZM225.917 245.328C223.956 244.641 222.063 243.885 220.237 243.061L220.846 241.687C222.604 242.442 224.497 243.198 226.458 243.885L225.917 245.328ZM328.632 243.61L328.361 242.099C330.3 241.687 332.261 241.229 334.244 240.725L334.582 242.236C332.599 242.74 330.615 243.198 328.632 243.61ZM340.533 240.862L340.195 239.351C342.178 238.847 344.139 238.366 346.078 237.908L346.483 239.351C344.5 239.855 342.516 240.358 340.533 240.862ZM214.625 240.313C212.799 239.351 211.041 238.252 209.351 237.084L210.23 235.778C211.852 236.946 213.611 237.977 215.369 239.007L214.625 240.313ZM746.657 239.282C745.304 237.725 743.929 236.214 742.532 234.748L743.681 233.649C745.034 235.16 746.386 236.694 747.739 238.252L746.657 239.282ZM352.434 237.839L352.028 236.328C354.012 235.824 355.973 235.298 357.911 234.748L358.317 236.259C356.333 236.763 354.372 237.29 352.434 237.839ZM364.2 234.611L363.794 233.168C365.777 232.618 367.738 232.069 369.677 231.519L370.083 232.962C368.144 233.511 366.183 234.061 364.2 234.611ZM204.55 233.237C202.927 231.863 201.439 230.42 200.087 228.908L201.236 227.809C202.521 229.321 204.009 230.763 205.496 232.069L204.55 233.237ZM376.033 231.313L375.627 229.802C377.566 229.252 379.504 228.679 381.443 228.084L381.848 229.595C379.91 230.191 377.972 230.763 376.033 231.313ZM738.475 230.282C737.032 228.817 735.589 227.374 734.147 225.954L735.161 224.855C736.649 226.275 738.114 227.718 739.556 229.183L738.475 230.282ZM387.731 227.878L387.326 226.367C389.264 225.817 391.202 225.244 393.141 224.649L393.547 226.092C391.608 226.687 389.67 227.283 387.731 227.878ZM399.362 224.374L398.956 222.863L404.771 221.077L405.177 222.588L399.362 224.374ZM196.3 224.031C195.083 222.313 194.001 220.458 193.054 218.672L194.407 217.916C195.286 219.703 196.368 221.42 197.517 223.138L196.3 224.031ZM729.684 221.832C728.196 220.458 726.641 219.153 725.086 217.848L726.033 216.611C727.588 217.916 729.143 219.29 730.698 220.664L729.684 221.832ZM411.06 220.802L410.587 219.359L416.402 217.504L416.875 219.016L411.06 220.802ZM422.691 217.161L422.285 215.718L428.1 213.932L428.506 215.375L422.691 217.161ZM720.353 213.932C718.73 212.695 717.107 211.459 715.484 210.291L716.363 209.054C718.053 210.222 719.676 211.459 721.299 212.764L720.353 213.932ZM434.321 213.52L433.916 212.008L439.731 210.222L440.137 211.733L434.321 213.52ZM190.552 212.833C189.808 210.84 189.2 208.848 188.727 206.787L190.214 206.444C190.688 208.436 191.296 210.359 191.972 212.283L190.552 212.833ZM446.019 209.879L445.546 208.436L451.429 206.65L451.835 208.092L446.019 209.879ZM710.548 206.718C708.857 205.619 707.099 204.52 705.409 203.421L706.22 202.115C707.911 203.215 709.669 204.314 711.359 205.482L710.548 206.718ZM457.718 206.306L457.312 204.795C459.25 204.245 461.211 203.673 463.195 203.077L463.601 204.52C461.662 205.115 459.701 205.711 457.718 206.306ZM469.483 202.802L469.01 201.36C470.994 200.764 472.955 200.192 474.893 199.642L475.299 201.085C473.36 201.68 471.422 202.253 469.483 202.802ZM187.78 200.535C187.645 199.024 187.577 197.581 187.577 196.207C187.577 194.902 187.645 194.215 187.645 194.215L189.132 194.352C189.132 194.352 189.065 195.039 189.065 196.207C189.065 197.535 189.132 198.932 189.268 200.398L187.78 200.535ZM700.202 200.261C698.444 199.299 696.686 198.268 694.86 197.375L695.604 196.001C697.362 196.894 699.188 197.925 700.946 198.887L700.202 200.261ZM481.249 199.436L480.776 197.925C482.759 197.375 484.743 196.826 486.727 196.276L487.132 197.787C485.149 198.337 483.188 198.887 481.249 199.436ZM493.015 196.139L492.609 194.696C494.593 194.146 496.554 193.62 498.492 193.116L498.898 194.558C496.915 195.108 494.954 195.635 493.015 196.139ZM689.45 194.696C687.625 193.803 685.731 192.978 683.906 192.154L684.514 190.78C686.34 191.536 688.233 192.429 690.059 193.253L689.45 194.696ZM504.849 193.116L504.443 191.604C506.426 191.101 508.41 190.597 510.393 190.093L510.732 191.604C508.793 192.108 506.832 192.612 504.849 193.116ZM516.682 190.162L516.344 188.65C518.327 188.192 520.311 187.734 522.294 187.276L522.633 188.788C520.649 189.246 518.666 189.704 516.682 190.162ZM678.293 189.956C676.4 189.2 674.506 188.513 672.613 187.895L673.086 186.383C675.047 187.07 676.941 187.757 678.834 188.513L678.293 189.956ZM528.583 187.414L528.245 185.902C530.229 185.49 532.212 185.078 534.196 184.666L534.534 186.177C532.55 186.589 530.567 187.001 528.583 187.414ZM666.865 185.971C664.904 185.421 662.943 184.872 660.982 184.322L661.388 182.811C663.349 183.36 665.31 183.91 667.271 184.528L666.865 185.971ZM540.484 184.94L540.214 183.429C542.197 183.017 544.203 182.628 546.232 182.261L546.502 183.773C544.519 184.139 542.513 184.528 540.484 184.94ZM655.167 182.811C653.184 182.353 651.2 181.941 649.217 181.574L649.487 180.063C651.516 180.429 653.522 180.841 655.505 181.299L655.167 182.811ZM552.453 182.742L552.25 181.231C554.234 180.91 556.24 180.589 558.268 180.269L558.471 181.78C556.487 182.101 554.481 182.421 552.453 182.742ZM564.489 180.887L564.286 179.376C566.315 179.101 568.343 178.826 570.372 178.551L570.507 180.131C568.524 180.36 566.518 180.612 564.489 180.887ZM643.199 180.475C641.215 180.154 639.209 179.857 637.18 179.582L637.383 178.07C639.412 178.345 641.44 178.643 643.469 178.964L643.199 180.475ZM576.525 179.444L576.39 177.864C578.419 177.635 580.447 177.452 582.476 177.315L582.611 178.826C580.583 179.009 578.554 179.215 576.525 179.444ZM631.162 178.895C629.134 178.666 627.105 178.483 625.076 178.345L625.212 176.834C627.24 176.971 629.269 177.132 631.297 177.315L631.162 178.895ZM588.697 178.414L588.562 176.834C590.59 176.696 592.619 176.582 594.648 176.49L594.715 178.07C592.732 178.162 590.726 178.277 588.697 178.414ZM619.058 178.002C617.03 177.91 615.001 177.841 612.972 177.796V176.284C615.046 176.33 617.097 176.399 619.126 176.49L619.058 178.002ZM600.801 177.796V176.284C602.829 176.238 604.858 176.193 606.887 176.147V177.727C604.858 177.727 602.829 177.75 600.801 177.796Z" fill="white"/>
<path d="M811.977 356.691L767.483 306.402L786.823 311.692L811.977 356.691Z" fill="#F5F5F5"/>
<path d="M811.977 356.69L804.336 323.165L790.271 317.875L811.977 356.69Z" fill="white"/>
<path d="M777.694 318.012L774.245 324.676L811.977 356.691L777.694 318.012Z" fill="#E8E8E8"/>
<defs>
<linearGradient id="paint0_linear_16_308" x1="220.258" y1="8.39033" x2="487.583" y2="116.699" gradientUnits="userSpaceOnUse">
<stop stop-color="#FFEBE3"/>
<stop offset="1" stop-color="#C4B4B0"/>
</linearGradient>
<linearGradient id="paint1_linear_16_308" x1="220.923" y1="78.825" x2="329.876" y2="98.8588" gradientUnits="userSpaceOnUse">
<stop stop-color="#FFEBE3"/>
<stop offset="1" stop-color="#C4B4B0"/>
</linearGradient>
<linearGradient id="paint2_linear_16_308" x1="375.354" y1="35.2046" x2="559.294" y2="212.127" gradientUnits="userSpaceOnUse">
<stop stop-color="#FFEBE3"/>
<stop offset="1" stop-color="#E3D1CB"/>
</linearGradient>
<linearGradient id="paint3_linear_16_308" x1="419.666" y1="-19.8034" x2="469.711" y2="147.028" gradientUnits="userSpaceOnUse">
<stop stop-color="#FFEBE3"/>
<stop offset="1" stop-color="#E3D1CB"/>
</linearGradient>
<linearGradient id="paint4_linear_16_308" x1="352.178" y1="2.465" x2="525.087" y2="168.776" gradientUnits="userSpaceOnUse">
<stop stop-color="#FFEBE3"/>
<stop offset="1" stop-color="#E3D1CB"/>
</linearGradient>
<linearGradient id="paint5_linear_16_308" x1="442.434" y1="52.9457" x2="601.521" y2="205.962" gradientUnits="userSpaceOnUse">
<stop stop-color="#FFEBE3"/>
<stop offset="1" stop-color="#E3D1CB"/>
</linearGradient>
<linearGradient id="paint6_linear_16_308" x1="528.269" y1="50.4211" x2="663.966" y2="236.027" gradientUnits="userSpaceOnUse">
<stop stop-color="#FFEBE3"/>
<stop offset="1" stop-color="#EDDAD4"/>
</linearGradient>
<linearGradient id="paint7_linear_16_308" x1="317.167" y1="347.575" x2="324.444" y2="276.536" gradientUnits="userSpaceOnUse">
<stop stop-color="#FFEBE3"/>
<stop offset="1" stop-color="#C4B4B0"/>
</linearGradient>
<linearGradient id="paint8_linear_16_308" x1="496.839" y1="9.09597" x2="679.453" y2="290.428" gradientUnits="userSpaceOnUse">
<stop stop-color="#FFEBE3"/>
<stop offset="1" stop-color="#C4B4B0"/>
</linearGradient>
<linearGradient id="paint9_linear_16_308" x1="416.706" y1="53.0358" x2="591.255" y2="310.213" gradientUnits="userSpaceOnUse">
<stop stop-color="#FFEBE3"/>
<stop offset="1" stop-color="#C4B4B0"/>
</linearGradient>
<linearGradient id="paint10_linear_16_308" x1="743.04" y1="-21.7126" x2="822.198" y2="246.513" gradientUnits="userSpaceOnUse">
<stop stop-color="#FFEBE3"/>
<stop offset="1" stop-color="#E3D1CB"/>
</linearGradient>
<linearGradient id="paint11_linear_16_308" x1="634.649" y1="72.9547" x2="699.32" y2="72.9547" gradientUnits="userSpaceOnUse">
<stop stop-color="#FFEBE3"/>
<stop offset="1" stop-color="#E3D1CB"/>
</linearGradient>
<linearGradient id="paint12_linear_16_308" x1="628.645" y1="382.722" x2="714.703" y2="382.722" gradientUnits="userSpaceOnUse">
<stop offset="0.005" stop-color="#3C6127"/>
<stop offset="1" stop-color="#639C38"/>
</linearGradient>
<linearGradient id="paint13_linear_16_308" x1="436.001" y1="266.27" x2="491.415" y2="219.317" gradientUnits="userSpaceOnUse">
<stop offset="0.005" stop-color="#3C6127"/>
<stop offset="1" stop-color="#639C38"/>
</linearGradient>
<linearGradient id="paint14_linear_16_308" x1="596.339" y1="462.362" x2="732.765" y2="462.362" gradientUnits="userSpaceOnUse">
<stop offset="0.005" stop-color="#3C6127"/>
<stop offset="1" stop-color="#639C38"/>
</linearGradient>
<linearGradient id="paint15_linear_16_308" x1="542.653" y1="377.467" x2="624.897" y2="343.129" gradientUnits="userSpaceOnUse">
<stop offset="0.005" stop-color="#3C6127"/>
<stop offset="1" stop-color="#639C38"/>
</linearGradient>
<linearGradient id="paint16_linear_16_308" x1="-369.873" y1="908.654" x2="-431.111" y2="806.184" gradientUnits="userSpaceOnUse">
<stop offset="0.005" stop-color="#3C6127"/>
<stop offset="1" stop-color="#639C38"/>
</linearGradient>
<linearGradient id="paint17_linear_16_308" x1="140.819" y1="953.607" x2="55.5513" y2="914.989" gradientUnits="userSpaceOnUse">
<stop offset="0.005" stop-color="#3C6127"/>
<stop offset="1" stop-color="#639C38"/>
</linearGradient>
<linearGradient id="paint18_linear_16_308" x1="833.12" y1="566.389" x2="428.916" y2="566.389" gradientUnits="userSpaceOnUse">
<stop stop-color="#FFAE70"/>
<stop offset="1" stop-color="#FFD970"/>
</linearGradient>
<linearGradient id="paint19_linear_16_308" x1="613.41" y1="621.262" x2="196.643" y2="176.865" gradientUnits="userSpaceOnUse">
<stop stop-color="#602F80"/>
<stop offset="1" stop-color="#5770FF"/>
</linearGradient>
<linearGradient id="paint20_linear_16_308" x1="537.639" y1="731.799" x2="153.26" y2="321.937" gradientUnits="userSpaceOnUse">
<stop stop-color="#602F80"/>
<stop offset="1" stop-color="#5770FF"/>
</linearGradient>
<linearGradient id="paint21_linear_16_308" x1="598.109" y1="579.735" x2="297.263" y2="258.943" gradientUnits="userSpaceOnUse">
<stop stop-color="#602F80"/>
<stop offset="1" stop-color="#5770FF"/>
</linearGradient>
<linearGradient id="paint22_linear_16_308" x1="278.384" y1="440.556" x2="377.371" y2="250.471" gradientUnits="userSpaceOnUse">
<stop stop-color="#4D8FFF"/>
<stop offset="1" stop-color="#54EDFF"/>
</linearGradient>
<linearGradient id="paint23_linear_16_308" x1="777.528" y1="497.899" x2="818.573" y2="497.899" gradientUnits="userSpaceOnUse">
<stop stop-color="#FFEBE3"/>
<stop offset="1" stop-color="#E3D1CB"/>
</linearGradient>
<linearGradient id="paint24_linear_16_308" x1="762.569" y1="480.366" x2="819.612" y2="480.366" gradientUnits="userSpaceOnUse">
<stop stop-color="#FFEBE3"/>
<stop offset="1" stop-color="#E3D1CB"/>
</linearGradient>
</defs>
</svg>
